<svg width="31" height="28" viewBox="0 0 31 28" fill="none" xmlns="http://www.w3.org/2000/svg">
<rect width="31" height="28" rx="14" fill="#C5ACED"/>
<path fill-rule="evenodd" clip-rule="evenodd" d="M20.1502 11.2C20.1502 13.5196 18.0683 15.4 15.5002 15.4C12.9321 15.4 10.8502 13.5196 10.8502 11.2C10.8502 
8.8804 12.9321 7 15.5002 7C18.0683 7 20.1502 8.8804 20.1502 11.2ZM18.6002 11.2C18.6002 12.7464 17.2123 14 15.5002 14C13.7881 14 12.4002 12.7464 12.4002 11.2C12.4002 9.6536 13.7881 
8.4 15.5002 8.4C17.2123 8.4 18.6002 9.6536 18.6002 11.2Z" fill="white"/>
<path d="M15.5002 17.5C10.4825 17.5 6.20738 20.1799 4.57886 23.9344C4.97558 24.2903 5.39349 24.6268 5.83074 24.9424C7.04341 21.4954 10.8476 18.9 15.5002 18.9C20.1527 18.9 23.957 
21.4954 25.1696 24.9425C25.6069 24.6268 26.0248 24.2903 26.4215
 23.9344C24.793 20.1799 20.5178 17.5 15.5002 17.5Z" fill="white"/>
</svg>
